<svg width="62" height="62" viewBox="0 0 62 62" fill="none" xmlns="http://www.w3.org/2000/svg">
<path d="M55.2023 26.7403C55.5154 28.4178 55.686 30.1717 55.686 32.0019C55.686 46.3182 46.1045 56.4979 31.633 56.4979C28.342 56.4989 25.083 55.8514 22.0423 54.5924C19.0016 53.3335 16.2388 51.4877 13.9117 49.1606C11.5846 46.8335 9.73884 44.0707 8.47989 41.03C7.22093 37.9893 6.57346 34.7304 6.57446 31.4394C6.57346 28.1484 7.22093 24.8894 8.47989 21.8487C9.73884 18.808 11.5846 16.0452 13.9117 13.7181C16.2388 11.391 19.0016 9.54523 22.0423 8.28628C25.083 7.02733 28.342 6.37986 31.633 6.38086C38.3991 6.38086 44.0528 8.87042 48.3904 12.9128L41.3265 19.9767V19.9589C38.6969 17.454 35.3597 16.1685 31.633 16.1685C23.365 16.1685 16.6447 23.1536 16.6447 31.4241C16.6447 39.6921 23.365 46.6924 31.633 46.6924C39.1347 46.6924 44.2411 42.4031 45.2899 36.5127H31.633V26.7403H55.2049H55.2023Z" fill="white"/>
</svg>
