<svg width="42" height="42" viewBox="0 0 42 42" fill="none" xmlns="http://www.w3.org/2000/svg">
<g clip-path="url(#clip0_4_3)">
<path d="M36.3673 35.3086C33.1052 37.7686 26.5869 40.0745 23.3809 41.1202C21.2539 41.8075 21.2362 41.8163 21 41.9838C21.0207 41.9838 21.0546 41.9985 21.0856 41.9985C21.4207 41.9911 21.865 41.9764 22.2 41.9691C22.9809 41.925 23.7455 41.8442 24.4998 41.7194C25.6142 41.5373 26.7006 41.2729 27.7486 40.9293C28.7936 40.5782 29.8003 40.1523 30.7686 39.6632C31.7354 39.158 32.6624 38.5867 33.5274 37.9508C34.292 37.3501 35.2736 36.5085 35.985 35.8564C36.3599 35.476 36.7172 35.103 37.0626 34.7006L36.3703 35.3071L36.3673 35.3086Z" fill="#B21D31"/>
<path d="M0 22.7044C0.276024 17.727 5.93674 14.2727 18.5173 8.42288C22.9942 6.33735 25.6836 4.68214 27.7737 3.1547C30.4247 1.21604 37.8537 5.20646 37.5836 11.9551C37.5157 13.6617 36.9268 15.8383 20.5764 23.9337C10.114 29.1167 6.42532 32.0364 6.47403 35.1177C6.47698 35.316 6.44008 35.5862 6.38251 35.7625C6.30133 36.0033 6.05482 35.7478 5.48506 35.2132C2.39123 31.869 0.379349 27.5202 0 22.7044Z" fill="#B21D31"/>
<path d="M9.90296 3.1283C15.1253 0 20.1247 0.0146869 20.9985 0C21.834 0.051404 25.8932 0.472917 23.837 2.12813C22.7492 2.99906 20.6251 3.93608 17.4132 5.36364C8.17743 9.47008 1.53808 12.7056 0.309998 17.0676C1.43181 11.2193 4.88138 6.21841 9.7952 3.19586" fill="#0B6446"/>
<path d="M14.1659 40.7839C6.85639 38.0536 8.81808 34.8034 21.4134 28.7936C30.0838 24.6577 34.847 22.0376 38.4959 18.3409C41.9897 15.289 42.155 21.0272 41.9381 23.2816C41.1218 31.6986 38.1711 33.6608 24.8039 39.0714C20.9115 40.6444 20.1912 40.9807 19.738 41.5153C19.6495 41.6108 19.6716 41.7488 19.7602 41.7782C20.0657 41.9177 20.1764 41.9691 20.9971 41.9985C19.7321 41.9618 17.0944 41.881 14.1659 40.7839Z" fill="#B21D31"/>
</g>
<defs>
<clipPath id="clip0_4_3">
<rect width="42" height="42" fill="white"/>
</clipPath>
</defs>
</svg>
